# xmcd
#
# Track frame offsets:
#	150
#	16850
#	32763
#	46275
#	59263
#	73088
#	92100
#
# Disc length: 1502 seconds
#
# Revision: 0
# Processed by: cddbd v1.5.1PL2 Copyright (c) Steve Scherf et al.
# Submitted via: dBpowerAMP V4.0
#
DISCID=5605dc07
DTITLE=Otis Redding - Soul Party
DYEAR=1900
DGENRE=Soul
TTITLE0=Fa Fa Fa Fa Fa (Sad Song)
TTITLE1=Day Tripper
TTITLE2=Shake
TTITLE3=My Girl
TTITLE4=Can't Get No Satisfaction
TTITLE5=I've Been Lovin' You Too Long
TTITLE6=Try a Little Tenderness
EXTD=
EXTT0=
EXTT1=
EXTT2=
EXTT3=
EXTT4=
EXTT5=
EXTT6=
PLAYORDER=
